<?xml version="1.0" encoding="UTF-8"?>
<svg xmlns="http://www.w3.org/2000/svg" width="200" height="200" viewBox="0 0 200 200">
  <defs>
    <style>
      .cls-1 {
        fill: none;
      }
    </style>
  </defs>
  <g id="Layer_1" data-name="Layer 1"/>
  <g id="Layer_2" data-name="Layer 2">
    <g id="github-color">
      <path d="M100.01,2.46C44.76,2.46,0,47.26,0,102.47c0,44.21,28.65,81.68,68.36,94.9,5.02,.94,6.83-2.15,6.83-4.83,0-2.38-.06-8.66-.09-16.99-27.83,6.03-33.7-13.44-33.7-13.44-4.56-11.53-11.13-14.62-11.13-14.62-9.05-6.18,.72-6.05,.72-6.05,10.03,.68,15.3,10.28,15.3,10.28,8.92,15.3,23.4,10.88,29.13,8.3,.88-6.44,3.48-10.88,6.32-13.34-22.2-2.51-45.55-11.1-45.55-49.42,0-10.94,3.88-19.86,10.28-26.86-1.11-2.51-4.49-12.69,.88-26.47,0,0,8.37-2.67,27.5,10.26,8.01-2.22,16.51-3.33,25-3.38,8.5,.06,16.99,1.17,25,3.38,19.02-12.93,27.38-10.26,27.38-10.26,5.37,13.78,1.98,23.96,1.01,26.47,6.34,7,10.22,15.92,10.22,26.86,0,38.41-23.38,46.88-45.6,49.32,3.48,2.99,6.73,9.15,6.73,18.49,0,13.38-.13,24.15-.13,27.41,0,2.6,1.75,5.73,6.9,4.72,40-13.08,68.62-50.58,68.62-94.73C200,47.25,155.24,2.46,99.99,2.46h.01Z"/>
      <rect class="cls-1" width="200" height="200"/>
    </g>
  </g>
</svg>