<?xml version="1.0" encoding="UTF-8"?>
<svg xmlns="http://www.w3.org/2000/svg" width="200" height="200" viewBox="0 0 200 200">
  <defs>
    <style>
      .cls-1 {
        fill: #fff;
      }

      .cls-2 {
        fill: none;
      }

      .cls-3 {
        fill: red;
      }
    </style>
  </defs>
  <g id="Layer_1" data-name="Layer 1"/>
  <g id="Layer_2" data-name="Layer 2">
    <g id="youtube-color">
      <g>
        <path class="cls-3" d="M195.82,51.86c-2.3-8.6-9.08-15.38-17.68-17.68-15.6-4.18-78.14-4.18-78.14-4.18,0,0-62.54,0-78.14,4.18-8.6,2.3-15.38,9.08-17.68,17.68C0,67.46,0,100,0,100c0,0,0,32.54,4.18,48.14,2.3,8.6,9.08,15.38,17.68,17.68,15.6,4.18,78.14,4.18,78.14,4.18,0,0,62.54,0,78.14-4.18,8.6-2.3,15.38-9.08,17.68-17.68,4.18-15.6,4.18-48.14,4.18-48.14,0,0,0-32.54-4.18-48.14Z"/>
        <polygon class="cls-1" points="80 130 131.96 100 80 70 80 130"/>
      </g>
      <rect class="cls-2" width="200" height="200"/>
    </g>
  </g>
</svg>